HIERARCHY
ROOT Hips
{
	OFFSET 0.000000 0.000000 0.000000
	CHANNELS 6 Xposition Yposition Zposition Zrotation Yrotation Xrotation 
	JOINT LHipJoint
	{
		OFFSET 0.000000 0.000000 0.000000
		CHANNELS 3 Zrotation Yrotation Xrotation
		JOINT LeftUpLeg
		{
			OFFSET 1.363060 -1.794630 0.839290
			CHANNELS 3 Zrotation Yrotation Xrotation
			JOINT LeftLeg
			{
				OFFSET 2.448110 -6.726130 0.000000
				CHANNELS 3 Zrotation Yrotation Xrotation
				JOINT LeftFoot
				{
					OFFSET 2.562200 -7.039590 0.000000
					CHANNELS 3 Zrotation Yrotation Xrotation
					JOINT LeftToeBase
					{
						OFFSET 0.157640 -0.433110 2.322550
						CHANNELS 3 Zrotation Yrotation Xrotation
						End Site
						{
							OFFSET 0.000000 0.000000 0.000000
						}
					}
				}
			}
		}
	}
	JOINT RHipJoint
	{
		OFFSET 0.000000 0.000000 0.000000
		CHANNELS 3 Zrotation Yrotation Xrotation
		JOINT RightUpLeg
		{
			OFFSET -1.305520 -1.794630 0.839290
			CHANNELS 3 Zrotation Yrotation Xrotation
			JOINT RightLeg
			{
				OFFSET -2.542530 -6.985550 0.000000
				CHANNELS 3 Zrotation Yrotation Xrotation
				JOINT RightFoot
				{
					OFFSET -2.568260 -7.056230 0.000000
					CHANNELS 3 Zrotation Yrotation Xrotation
					JOINT RightToeBase
					{
						OFFSET -0.164730 -0.452590 2.363150
						CHANNELS 3 Zrotation Yrotation Xrotation
						End Site
						{
							OFFSET 0.000000 0.000000 0.000000
						}
					}
				}
			}
		}
	}
}
MOTION
Frames: 25
Frame Time: 0.008333
8.287689 16.173281 1.588429 14.585094 64.131835 17.224813 -10.459015 0.588347 -1.365655 -1.271769 15.093301 -31.241402 -0.875255 2.650780 51.667058 3.261152 20.568430 -13.543158 -2.163000 0.000000 -12.603100 9.186690 -1.423420 -0.966633 17.882370 -4.953689 -11.550582 2.326106 -1.538085 35.618078 -4.816577 -11.603571 -38.601270 -172.796600 -0.000000 -17.739400
8.490036 16.252476 1.688648 14.429658 62.912201 17.292233 -10.282592 0.515681 -1.250202 -2.282786 14.790087 -31.509147 -0.954178 2.418877 49.529888 3.370368 21.068163 -13.266330 -2.084000 0.000000 -12.138500 9.285846 -1.496112 -0.765307 17.186083 -4.480949 -9.673820 2.381366 -1.331857 33.161791 -4.566435 -10.714949 -37.415998 -173.472500 0.000000 -15.858400
8.696558 16.340383 1.793356 14.366303 61.701655 17.429119 -10.100866 0.460198 -1.130169 -3.350062 14.530589 -31.673496 -1.034312 2.170988 47.170997 3.479405 21.571769 -12.884766 -1.954500 0.000000 -11.706800 9.409276 -1.580360 -0.533143 16.403056 -3.991327 -7.751994 2.405166 -1.118325 30.563167 -4.293648 -9.902874 -35.916243 -174.161500 -0.000000 -13.625000
8.906976 16.435902 1.902188 14.378103 60.519111 17.610808 -9.918323 0.426955 -0.998207 -4.452321 14.272583 -31.720726 -1.115126 1.911109 44.601298 3.575333 22.010851 -12.376955 -1.757800 0.000000 -11.482800 9.556780 -1.680448 -0.281935 15.545448 -3.522933 -5.805494 2.393989 -0.906023 27.864021 -3.998496 -9.173051 -34.082002 -174.859900 0.000000 -11.089401
9.121155 16.537731 2.014540 14.438426 59.381411 17.808894 -9.740532 0.419283 -0.847302 -5.560806 13.980860 -31.646206 -1.198550 1.644653 41.845052 3.644476 22.310515 -11.745097 -1.489400 0.000000 -11.451700 9.724048 -1.801463 -0.023680 14.634944 -3.110154 -3.862825 2.347267 -0.705431 25.118069 -3.681773 -8.521857 -31.895740 -175.567299 0.000000 -8.279200
9.338794 16.644484 2.129854 14.523120 58.303808 17.996930 -9.573322 0.439078 -0.671447 -6.645699 13.626572 -31.446063 -1.286367 1.376842 38.929487 3.673389 22.406798 -10.971500 -1.143001 0.000000 -11.736100 9.904986 -1.948314 0.229508 13.693706 -2.783021 -1.955816 2.267594 -0.528818 22.389672 -3.344657 -7.938373 -29.341375 -176.285000 0.000000 -5.172700
9.559830 16.754773 2.247276 14.596764 57.297664 18.144755 -9.423619 0.485217 -0.465700 -7.670672 13.193761 -31.130935 -1.381608 1.113539 35.895206 3.650329 22.244789 -10.052171 -0.725200 0.000000 -12.371299 10.088476 -2.124975 0.467635 12.754402 -2.558970 -0.125021 2.161179 -0.388653 19.754880 -2.990541 -7.410024 -26.407786 -177.011700 0.000000 -1.683899
9.783840 16.867254 2.366079 14.635287 56.371569 18.229022 -9.297068 0.555073 -0.228517 -8.605499 12.676515 -30.707997 -1.487043 0.859444 32.784250 3.566828 21.792214 -8.983029 -0.251600 0.000000 -13.399400 10.264317 -2.332950 0.680464 11.842180 -2.452591 1.592814 2.036338 -0.296826 17.294099 -2.623439 -6.919164 -23.085891 2.256200 0.000001 -2.380000
10.010667 16.980618 2.485341 14.606251 55.530834 18.224691 -9.199920 0.643221 0.039769 -9.418861 12.082113 -30.199543 -1.604092 0.619224 29.648588 3.418697 21.038144 -7.762784 0.254601 -0.000000 -14.904600 10.419409 -2.570776 0.861465 10.988460 -2.465455 3.157699 1.902616 -0.261606 15.085748 -2.251300 -6.452428 -19.378769 1.530300 0.000000 -7.243200
10.239652 17.093677 2.604388 14.499114 54.776651 18.117230 -9.134765 0.743914 0.332703 -10.096056 11.429708 -29.615499 -1.733876 0.395779 26.536899 3.207868 19.995940 -6.419323 0.754500 0.000001 -16.783000 10.546947 -2.833295 1.003213 10.204078 -2.603151 4.545665 1.766451 -0.288119 13.193937 -1.883168 -5.995694 -15.285653 0.826400 0.000000 -13.314000
10.470279 17.205277 2.722492 14.300415 54.109050 17.894885 -9.103750 0.849667 0.641749 -10.628205 10.749446 -28.980004 -1.874369 0.191671 23.504177 2.942307 18.701747 -4.981631 1.211500 0.000000 -19.032900 10.639677 -3.110425 1.104236 9.505418 -2.853108 5.738162 1.633676 -0.372822 11.669111 -1.536462 -5.541503 -10.890371 0.178100 -0.000000 -20.400300
10.701680 17.314245 2.839186 14.014852 53.524315 17.556514 -9.105183 0.953715 0.954061 -11.025626 10.079320 -28.309765 -2.022477 0.007959 20.601171 2.636487 17.211845 -3.505486 1.588000 -0.000000 -21.517500 10.697007 -3.389043 1.164289 8.891610 -3.202858 6.731473 1.506118 -0.506854 10.546041 -1.228536 -5.080667 -6.318963 -0.378600 0.000000 -28.141600
10.932848 17.419373 2.954175 13.657998 53.016912 17.111148 -9.134473 1.050290 1.256365 -11.312742 9.455865 -27.619697 -2.173349 -0.155829 17.871161 2.310145 15.603170 -2.054532 1.859800 -0.000000 -24.110500 10.722724 -3.653539 1.184810 8.351941 -3.638695 7.527919 1.385257 -0.675726 9.859032 -0.973849 -4.593404 -1.795164 -0.803300 0.000001 -35.505300
11.162722 17.519370 3.067100 13.246999 52.575383 16.565671 -9.186188 1.134932 1.532046 -11.522069 8.929548 -26.924944 -2.322972 -0.300166 15.364093 1.983000 13.944557 -0.720123 2.009700 0.000000 -26.555200 10.722841 -3.892220 1.167335 7.868252 -4.150742 8.142491 1.267828 -0.866229 9.617795 -0.779202 -4.078707 2.518990 -1.078700 -0.000000 -42.097600
11.390251 17.613053 3.178023 12.814891 52.189915 15.947541 -9.251594 1.206233 1.773414 -11.692274 8.510097 -26.225497 -2.464662 -0.428456 13.091838 1.677702 12.345061 0.448254 2.055300 -0.000000 -28.854000 10.708299 -4.094857 1.113477 7.408496 -4.732844 8.585826 1.150253 -1.065387 9.826770 -0.645755 -3.547606 6.436167 -1.203800 -0.000000 -47.326900
11.614565 17.699246 3.286855 12.382600 51.846694 15.273404 -9.323793 1.263502 1.972073 -11.852859 8.213798 -25.521841 -2.593347 -0.543444 11.068569 1.411072 10.891767 1.390724 2.019600 0.000000 -30.915200 10.686861 -4.256306 1.025552 6.950673 -5.369827 8.883590 1.026960 -1.263433 10.451346 -0.573120 -3.064350 9.865865 -1.216200 -0.000000 -51.376900
11.834980 17.776860 3.393578 11.964431 51.533111 14.558292 -9.397369 1.307145 2.124593 -12.020544 8.039904 -24.809597 -2.703865 -0.648144 9.291865 1.195291 9.666327 2.071811 1.935500 -0.000000 -32.719800 10.663748 -4.374059 0.906208 6.481502 -6.040559 9.064589 0.894834 -1.452725 11.442540 -0.559309 -2.722258 12.735120 -1.180500 0.000001 -54.451099
12.051060 17.844980 3.498422 11.580195 51.238836 13.824299 -9.465844 1.338906 2.237927 -12.199125 7.935538 -24.052607 -2.789510 -0.748168 7.707040 1.042248 8.777942 2.502537 1.849200 -0.000000 -34.336200 10.646112 -4.446891 0.753786 5.980034 -6.736209 9.154178 0.752589 -1.629346 12.750918 -0.599590 -2.613535 14.991153 -1.170800 -0.000000 -56.761200
12.263073 17.902640 3.600752 11.181843 50.952924 13.035238 -9.538953 1.358532 2.296199 -12.373465 8.001272 -23.317567 -2.852281 -0.836135 6.405372 0.939264 8.135736 2.624750 1.748600 -0.000000 -35.556400 10.619330 -4.481079 0.578983 5.497297 -7.412486 9.190384 0.604823 -1.789978 14.306235 -0.692534 -2.865785 16.619055 -1.277400 -0.000000 -58.479600
12.471228 17.949259 3.701043 10.789758 50.669752 12.216994 -9.611626 1.369087 2.319144 -12.527263 8.128982 -22.540303 -2.885146 -0.918650 5.278351 0.894458 7.840921 2.523127 1.676700 0.000000 -36.527201 10.592131 -4.477654 0.375245 5.003343 -8.088675 9.178852 0.452888 -1.936918 16.077745 -0.831206 -3.512147 17.603645 -1.539100 0.000000 -59.696900
12.676285 17.984250 3.799093 10.373043 50.383572 11.350915 -9.691643 1.371864 2.305919 -12.635288 8.343541 -21.746238 -2.889139 -0.990920 4.346498 0.895929 7.819158 2.226959 1.623700 -0.000000 -37.175500 10.557110 -4.442887 0.147075 4.522712 -8.756873 9.129711 0.301661 -2.071851 18.025138 -1.013053 -4.580697 17.961026 -1.974100 0.000000 -60.434599
12.879059 18.007118 3.894844 9.913556 50.090317 10.428311 -9.785089 1.369068 2.257431 -12.679385 8.659158 -20.957061 -2.867371 -1.047851 3.625573 0.929771 7.981558 1.787186 1.577500 -0.000000 -37.465800 10.511421 -4.382879 -0.102370 4.062749 -9.423809 9.040900 0.155409 -2.197598 20.123678 -1.234940 -6.039646 17.719696 -2.553200 0.000000 -60.651600
13.080382 18.017559 3.988647 9.419909 49.786951 9.470062 -9.890317 1.362355 2.195533 -12.634868 8.962271 -20.125659 -2.816308 -1.092214 3.025580 0.995444 8.358158 1.319754 1.557700 -0.000001 -37.501100 10.461286 -4.300159 -0.375531 3.600947 -10.108334 8.893787 0.017220 -2.317933 22.362973 -1.491527 -7.797111 16.919203 -3.202700 -0.000000 -60.261800
13.281365 18.015323 4.080471 8.867395 49.470893 8.473607 -10.014925 1.353783 2.117651 -12.495478 9.302981 -19.331778 -2.744841 -1.114869 2.628286 1.070654 8.790050 0.856099 1.538900 0.000001 -37.272300 10.401013 -4.204123 -0.658553 3.160397 -10.800741 8.657058 -0.108329 -2.434740 24.731978 -1.777800 -9.760860 15.622674 -3.842200 0.000000 -59.187800
13.482451 18.000170 4.170393 8.261107 49.135919 7.448911 -10.159269 1.345054 2.024518 -12.261570 9.674321 -18.594313 -2.659041 -1.111337 2.456124 1.141124 9.191884 0.448800 1.516200 -0.000000 -36.866500 10.333766 -4.100007 -0.947090 2.730469 -11.499659 8.317353 -0.219015 -2.551386 27.216743 -2.083825 -11.805148 13.914615 -4.380100 0.000000 -57.400500
